<svg xmlns="http://www.w3.org/2000/svg" viewBox="0 0 36 36" fill="#E2E8F0">
  <path d="M18 14c-3 0-6 1.5-8 4-2.5 3-2 6.5 0 8 1.5 1.2 3.5 1.5 5.5.5 1-.5 1.8-1 2.5-1 .7 0 1.5.5 2.5 1 2 .8 4 .7 5.5-.5 2-1.5 2.5-5 0-8-2-2.5-5-4-8-4z"/>
  <ellipse cx="9" cy="12" rx="3.5" ry="4.5" transform="rotate(-15 9 12)"/>
  <ellipse cx="16" cy="7" rx="3" ry="4.2"/>
  <ellipse cx="23" cy="7.5" rx="3" ry="4.2" transform="rotate(5 23 7.5)"/>
  <ellipse cx="29" cy="13" rx="3.5" ry="4.5" transform="rotate(15 29 13)"/>
</svg>
