<svg xmlns="http://www.w3.org/2000/svg" viewBox="0 0 36 36" fill="#F97316">
  <path d="M22 17c-1.5-2.4-3.5-4-5.5-5.2C14.8 10.8 13 10 12 10.5c-1.5.8-2.2 3.5-1 6.2 1 2.2 2.5 4 4.5 5.3 1.6 1 3.5 2 5 2 2 0 3-1.2 3-2.8 0-1.5-.5-2.8-1.5-4.2z"/>
  <path d="M14 17c1.5-2.4 3.5-4 5.5-5.2 1.7-1 3.5-1.8 4.5-1.3 1.5.8 2.2 3.5 1 6.2-1 2.2-2.5 4-4.5 5.3-1.6 1-3.5 2-5 2-2 0-3-1.2-3-2.8 0-1.5.5-2.8 1.5-4.2z"/>
  <ellipse cx="8.5" cy="11" rx="3.2" ry="4" transform="rotate(-20 8.5 11)"/>
  <ellipse cx="15" cy="5.5" rx="2.8" ry="3.8" transform="rotate(-5 15 5.5)"/>
  <ellipse cx="21" cy="5.5" rx="2.8" ry="3.8" transform="rotate(5 21 5.5)"/>
  <ellipse cx="27.5" cy="11" rx="3.2" ry="4" transform="rotate(20 27.5 11)"/>
</svg>
